<svg xmlns="http://www.w3.org/2000/svg" width="600" height="340" viewBox="0 0 600 340">
  <defs>
    <linearGradient id="bgd" x1="0" y1="0" x2="1" y2="1">
      <stop offset="0" stop-color="#0b0f14"/>
      <stop offset="1" stop-color="#0f2a1a"/>
    </linearGradient>
  </defs>
  <rect width="600" height="340" fill="url(#bgd)"/>
  <g transform="translate(150 80)">
    <path d="M0 0 h300 v40 a20 20 0 0 0 0 40 v40 h-300 v-40 a20 20 0 0 0 0 -40 z" fill="#132a1c" stroke="#84cc16" stroke-opacity="0.7" stroke-width="2"/>
    <line x1="210" y1="8" x2="210" y2="112" stroke="#84cc16" stroke-opacity="0.5" stroke-dasharray="5 5"/>
    <text x="105" y="52" text-anchor="middle" font-family="monospace" font-size="24" font-weight="bold" fill="#bef264">ADMIT TWO</text>
    <text x="105" y="82" text-anchor="middle" font-family="monospace" font-size="13" fill="#a3e635">movie · dinner · drink</text>
    <circle cx="255" cy="60" r="22" fill="#84cc16" fill-opacity="0.85"/>
    <circle cx="255" cy="60" r="15" fill="none" stroke="#132a1c" stroke-width="2"/>
    <path d="M255 45 v30 M240 60 h30 M244 49 l22 22 M266 49 l-22 22" stroke="#132a1c" stroke-width="1.5"/>
  </g>
  <text x="300" y="295" text-anchor="middle" font-family="monospace" font-size="16" fill="#94a3b8">pick a mood → pair a meal → get the ticket</text>
</svg>
