<svg xmlns="http://www.w3.org/2000/svg" width="600" height="340" viewBox="0 0 600 340">
  <defs>
    <linearGradient id="bg7" x1="0" y1="0" x2="1" y2="1">
      <stop offset="0" stop-color="#0b0f14"/>
      <stop offset="1" stop-color="#26100e"/>
    </linearGradient>
  </defs>
  <rect width="600" height="340" fill="url(#bg7)"/>
  <g transform="translate(230,80)">
    <g stroke="#0b0f14" stroke-width="3">
      <rect x="0" y="0" width="46" height="46" fill="#ef4444"/><rect x="47" y="0" width="46" height="46" fill="#fbbf24"/><rect x="94" y="0" width="46" height="46" fill="#3b82f6"/>
      <rect x="0" y="47" width="46" height="46" fill="#22c55e"/><rect x="47" y="47" width="46" height="46" fill="#f8fafc"/><rect x="94" y="47" width="46" height="46" fill="#ef4444"/>
      <rect x="0" y="94" width="46" height="46" fill="#fbbf24"/><rect x="47" y="94" width="46" height="46" fill="#3b82f6"/><rect x="94" y="94" width="46" height="46" fill="#22c55e"/>
    </g>
    <g font-family="monospace" font-size="30" font-weight="bold" text-anchor="middle">
      <text x="23" y="34" fill="#0b0f14">X</text>
      <text x="70" y="81" fill="#0b0f14">O</text>
      <text x="117" y="128" fill="#0b0f14">X</text>
    </g>
  </g>
  <path d="M 190 150 A 110 110 0 0 1 240 62" stroke="#f87171" stroke-width="3" fill="none" stroke-dasharray="6 6"/>
  <path d="M 410 190 A 110 110 0 0 1 360 278" stroke="#f87171" stroke-width="3" fill="none" stroke-dasharray="6 6"/>
  <text x="300" y="310" text-anchor="middle" font-family="monospace" font-size="16" fill="#94a3b8">tic-tac-toe on a spinning cube · minimax AI</text>
</svg>
